<svg width="1067" height="347" viewBox="0 0 1067 347" fill="none" xmlns="http://www.w3.org/2000/svg">
<path d="M248.493 69L229.197 1.8H238.605L253.965 57.096L270.285 1.8H279.309L295.629 57.096L310.989 1.8H320.397L301.101 69H290.733L274.797 15.336L258.861 69H248.493ZM338.925 60.552H370.125V69H329.997V1.8H369.645V10.248H338.925V30.888H367.245V39.24H338.925V60.552ZM389.831 60.552H418.823V69H380.903V1.8H389.831V60.552ZM454.768 70.248C444.592 70.248 436.176 66.888 429.52 60.168C422.928 53.448 419.632 45.192 419.632 35.4C419.632 25.608 422.928 17.352 429.52 10.632C436.176 3.91199 444.592 0.551994 454.768 0.551994C460.912 0.551994 466.544 2.02399 471.664 4.96799C476.848 7.91199 480.88 11.88 483.76 16.872L475.984 21.384C474.064 17.672 471.184 14.728 467.344 12.552C463.568 10.312 459.376 9.192 454.768 9.192C447.024 9.192 440.688 11.688 435.76 16.68C430.896 21.672 428.464 27.912 428.464 35.4C428.464 42.824 430.896 49.032 435.76 54.024C440.688 59.016 447.024 61.512 454.768 61.512C459.376 61.512 463.568 60.424 467.344 58.248C471.184 56.008 474.064 53.064 475.984 49.416L483.76 53.832C480.944 58.824 476.944 62.824 471.76 65.832C466.576 68.776 460.912 70.248 454.768 70.248ZM549.556 60.072C542.836 66.856 534.612 70.248 524.884 70.248C515.156 70.248 506.932 66.856 500.212 60.072C493.492 53.288 490.132 45.064 490.132 35.4C490.132 25.672 493.492 17.448 500.212 10.728C506.932 3.94399 515.156 0.551994 524.884 0.551994C534.612 0.551994 542.836 3.94399 549.556 10.728C556.34 17.448 559.732 25.672 559.732 35.4C559.732 45.064 556.34 53.288 549.556 60.072ZM506.356 54.024C511.348 59.016 517.524 61.512 524.884 61.512C532.244 61.512 538.388 59.016 543.316 54.024C548.308 48.968 550.804 42.76 550.804 35.4C550.804 27.976 548.308 21.768 543.316 16.776C538.388 11.72 532.244 9.192 524.884 9.192C517.524 9.192 511.348 11.72 506.356 16.776C501.428 21.768 498.964 27.976 498.964 35.4C498.964 42.76 501.428 48.968 506.356 54.024ZM633.346 1.8V69H624.514V16.488L602.53 53.064H601.378L579.394 16.584V69H570.466V1.8H580.546L601.954 37.32L623.266 1.8H633.346ZM656.644 60.552H687.844V69H647.716V1.8H687.364V10.248H656.644V30.888H684.964V39.24H656.644V60.552ZM765.63 1.8V10.248H745.758V69H736.926V10.248H717.15V1.8H765.63ZM826.494 60.072C819.774 66.856 811.55 70.248 801.822 70.248C792.094 70.248 783.87 66.856 777.15 60.072C770.43 53.288 767.07 45.064 767.07 35.4C767.07 25.672 770.43 17.448 777.15 10.728C783.87 3.94399 792.094 0.551994 801.822 0.551994C811.55 0.551994 819.774 3.94399 826.494 10.728C833.278 17.448 836.67 25.672 836.67 35.4C836.67 45.064 833.278 53.288 826.494 60.072ZM783.294 54.024C788.286 59.016 794.462 61.512 801.822 61.512C809.182 61.512 815.326 59.016 820.254 54.024C825.246 48.968 827.742 42.76 827.742 35.4C827.742 27.976 825.246 21.768 820.254 16.776C815.326 11.72 809.182 9.192 801.822 9.192C794.462 9.192 788.286 11.72 783.294 16.776C778.366 21.768 775.902 27.976 775.902 35.4C775.902 42.76 778.366 48.968 783.294 54.024ZM373.143 143.828H405.662V172.734H373.143C367.169 172.734 362.062 174.854 357.822 179.094C353.583 183.333 351.463 188.44 351.463 194.414C351.463 200.388 353.583 205.495 357.822 209.734C362.062 213.974 367.169 216.094 373.143 216.094H405.662V245H373.143C359.171 245 347.247 240.062 337.371 230.186C327.495 220.309 322.557 208.385 322.557 194.414C322.557 180.443 327.495 168.519 337.371 158.643C347.247 148.766 359.171 143.828 373.143 143.828ZM463.475 245C449.503 245 437.579 240.062 427.703 230.186C417.827 220.309 412.889 208.385 412.889 194.414C412.889 180.443 417.827 168.519 427.703 158.643C437.579 148.766 449.503 143.828 463.475 143.828C477.446 143.828 489.37 148.766 499.246 158.643C509.122 168.519 514.061 180.443 514.061 194.414C514.061 208.385 509.122 220.309 499.246 230.186C489.37 240.062 477.446 245 463.475 245ZM463.475 216.094C469.449 216.094 474.555 213.974 478.795 209.734C483.035 205.495 485.154 200.388 485.154 194.414C485.154 188.44 483.035 183.333 478.795 179.094C474.555 174.854 469.449 172.734 463.475 172.734C457.501 172.734 452.394 174.854 448.154 179.094C443.915 183.333 441.795 188.44 441.795 194.414C441.795 200.388 443.915 205.495 448.154 209.734C452.394 213.974 457.501 216.094 463.475 216.094ZM550.193 194.414V245H521.287V143.828H550.193L586.326 194.414V143.828H615.232V245H586.326L550.193 194.414ZM651.365 194.414V245H622.459V143.828H651.365L687.498 194.414V143.828H716.404V245H687.498L651.365 194.414ZM803.123 143.828V172.734H752.537V179.961H803.123V208.867H752.537V216.094H803.123V245H723.631V143.828H803.123ZM860.936 143.828H893.455V172.734H860.936C854.962 172.734 849.855 174.854 845.615 179.094C841.376 183.333 839.256 188.44 839.256 194.414C839.256 200.388 841.376 205.495 845.615 209.734C849.855 213.974 854.962 216.094 860.936 216.094H893.455V245H860.936C846.964 245 835.04 240.062 825.164 230.186C815.288 220.309 810.35 208.385 810.35 194.414C810.35 180.443 815.288 168.519 825.164 158.643C835.04 148.766 846.964 143.828 860.936 143.828ZM958.494 245H929.588V172.734H900.682V143.828H987.4V172.734H958.494V245ZM979.307 245C975.308 245 971.887 243.603 969.045 240.809C966.251 237.966 964.854 234.546 964.854 230.547C964.854 226.548 966.251 223.152 969.045 220.357C971.887 217.515 975.308 216.094 979.307 216.094C983.305 216.094 986.702 217.515 989.496 220.357C992.339 223.152 993.76 226.548 993.76 230.547C993.76 234.546 992.339 237.966 989.496 240.809C986.702 243.603 983.305 245 979.307 245ZM1015.44 245C1011.44 245 1008.02 243.603 1005.18 240.809C1002.38 237.966 1000.99 234.546 1000.99 230.547C1000.99 226.548 1002.38 223.152 1005.18 220.357C1008.02 217.515 1011.44 216.094 1015.44 216.094C1019.44 216.094 1022.83 217.515 1025.63 220.357C1028.47 223.152 1029.89 226.548 1029.89 230.547C1029.89 234.546 1028.47 237.966 1025.63 240.809C1022.83 243.603 1019.44 245 1015.44 245ZM1051.57 245C1047.57 245 1044.15 243.603 1041.31 240.809C1038.52 237.966 1037.12 234.546 1037.12 230.547C1037.12 226.548 1038.52 223.152 1041.31 220.357C1044.15 217.515 1047.57 216.094 1051.57 216.094C1055.57 216.094 1058.97 217.515 1061.76 220.357C1064.6 223.152 1066.03 226.548 1066.03 230.547C1066.03 234.546 1064.6 237.966 1061.76 240.809C1058.97 243.603 1055.57 245 1051.57 245ZM51.2416 312.34V318.14L50.9216 321.24C50.8816 321.667 50.7682 322 50.5816 322.24C50.3949 322.467 50.0949 322.58 49.6816 322.58C49.3349 322.58 49.0616 322.467 48.8616 322.24C48.6749 322 48.5416 321.667 48.4616 321.24L48.1416 318.14V312.34H51.2416ZM57.9016 312.34V318.14L57.5816 321.24C57.5416 321.667 57.4282 322 57.2416 322.24C57.0549 322.467 56.7549 322.58 56.3416 322.58C55.9949 322.58 55.7216 322.467 55.5216 322.24C55.3349 322 55.2016 321.667 55.1216 321.24L54.8016 318.14V312.34H57.9016ZM75.62 337.92C76.8067 337.92 77.8667 337.72 78.8 337.32C79.7333 336.92 80.52 336.36 81.16 335.64C81.8133 334.92 82.3067 334.06 82.64 333.06C82.9867 332.06 83.16 330.96 83.16 329.76V312.34H87.02V329.76C87.02 331.413 86.7533 332.947 86.22 334.36C85.7 335.773 84.9467 337 83.96 338.04C82.9867 339.067 81.7933 339.873 80.38 340.46C78.9667 341.047 77.38 341.34 75.62 341.34C73.86 341.34 72.2733 341.047 70.86 340.46C69.4467 339.873 68.2467 339.067 67.26 338.04C66.2733 337 65.5133 335.773 64.98 334.36C64.46 332.947 64.2 331.413 64.2 329.76V312.34H68.06V329.74C68.06 330.94 68.2267 332.04 68.56 333.04C68.9067 334.04 69.4 334.9 70.04 335.62C70.6933 336.34 71.4867 336.907 72.42 337.32C73.3667 337.72 74.4333 337.92 75.62 337.92ZM95.6988 312.34C96.0454 312.34 96.2988 312.387 96.4588 312.48C96.6321 312.56 96.8254 312.733 97.0388 313L113.639 334.6C113.599 334.253 113.572 333.92 113.559 333.6C113.545 333.267 113.539 332.947 113.539 332.64V312.34H116.939V341H114.979C114.672 341 114.412 340.947 114.199 340.84C113.999 340.733 113.799 340.553 113.599 340.3L97.0188 318.72C97.0454 319.053 97.0654 319.38 97.0788 319.7C97.0921 320.02 97.0988 320.313 97.0988 320.58V341H93.6988V312.34H95.6988ZM127.813 337.74H140.213V341H123.933V312.34H127.813V337.74ZM169.498 326.68C169.498 328.827 169.158 330.8 168.478 332.6C167.798 334.387 166.838 335.927 165.598 337.22C164.358 338.513 162.865 339.52 161.118 340.24C159.385 340.947 157.465 341.3 155.358 341.3C153.252 341.3 151.332 340.947 149.598 340.24C147.865 339.52 146.378 338.513 145.138 337.22C143.898 335.927 142.938 334.387 142.258 332.6C141.578 330.8 141.238 328.827 141.238 326.68C141.238 324.533 141.578 322.567 142.258 320.78C142.938 318.98 143.898 317.433 145.138 316.14C146.378 314.833 147.865 313.82 149.598 313.1C151.332 312.38 153.252 312.02 155.358 312.02C157.465 312.02 159.385 312.38 161.118 313.1C162.865 313.82 164.358 314.833 165.598 316.14C166.838 317.433 167.798 318.98 168.478 320.78C169.158 322.567 169.498 324.533 169.498 326.68ZM165.518 326.68C165.518 324.92 165.278 323.34 164.798 321.94C164.318 320.54 163.638 319.36 162.758 318.4C161.878 317.427 160.812 316.68 159.558 316.16C158.305 315.64 156.905 315.38 155.358 315.38C153.825 315.38 152.432 315.64 151.178 316.16C149.925 316.68 148.852 317.427 147.958 318.4C147.078 319.36 146.398 320.54 145.918 321.94C145.438 323.34 145.198 324.92 145.198 326.68C145.198 328.44 145.438 330.02 145.918 331.42C146.398 332.807 147.078 333.987 147.958 334.96C148.852 335.92 149.925 336.66 151.178 337.18C152.432 337.687 153.825 337.94 155.358 337.94C156.905 337.94 158.305 337.687 159.558 337.18C160.812 336.66 161.878 335.92 162.758 334.96C163.638 333.987 164.318 332.807 164.798 331.42C165.278 330.02 165.518 328.44 165.518 326.68ZM194.993 335.08C195.206 335.08 195.399 335.167 195.573 335.34L197.093 337C195.919 338.36 194.493 339.42 192.813 340.18C191.146 340.94 189.133 341.32 186.773 341.32C184.706 341.32 182.833 340.967 181.153 340.26C179.473 339.54 178.039 338.54 176.853 337.26C175.666 335.967 174.746 334.42 174.093 332.62C173.439 330.82 173.113 328.84 173.113 326.68C173.113 324.52 173.459 322.54 174.153 320.74C174.859 318.94 175.846 317.393 177.113 316.1C178.379 314.807 179.893 313.807 181.653 313.1C183.426 312.38 185.379 312.02 187.513 312.02C189.619 312.02 191.433 312.347 192.953 313C194.486 313.653 195.846 314.54 197.033 315.66L195.773 317.44C195.679 317.573 195.573 317.687 195.453 317.78C195.333 317.86 195.159 317.9 194.933 317.9C194.759 317.9 194.573 317.84 194.372 317.72C194.186 317.587 193.959 317.427 193.693 317.24C193.426 317.053 193.113 316.853 192.753 316.64C192.393 316.427 191.966 316.227 191.473 316.04C190.979 315.853 190.406 315.7 189.753 315.58C189.099 315.447 188.346 315.38 187.493 315.38C185.959 315.38 184.553 315.647 183.273 316.18C182.006 316.7 180.913 317.447 179.993 318.42C179.073 319.393 178.353 320.58 177.833 321.98C177.326 323.38 177.073 324.947 177.073 326.68C177.073 328.467 177.326 330.06 177.833 331.46C178.353 332.86 179.053 334.047 179.933 335.02C180.826 335.98 181.879 336.713 183.093 337.22C184.306 337.727 185.613 337.98 187.013 337.98C187.866 337.98 188.633 337.933 189.313 337.84C189.993 337.733 190.619 337.573 191.193 337.36C191.779 337.147 192.319 336.88 192.813 336.56C193.319 336.227 193.826 335.833 194.333 335.38C194.559 335.18 194.779 335.08 194.993 335.08ZM206.435 324.9H207.895C208.402 324.9 208.802 324.84 209.095 324.72C209.402 324.587 209.689 324.367 209.955 324.06L219.495 313.26C219.789 312.927 220.069 312.693 220.335 312.56C220.615 312.413 220.969 312.34 221.395 312.34H224.695L213.775 324.68C213.495 324.987 213.229 325.247 212.975 325.46C212.735 325.673 212.475 325.847 212.195 325.98C212.569 326.1 212.895 326.28 213.175 326.52C213.455 326.76 213.749 327.06 214.055 327.42L225.455 341H222.095C221.842 341 221.629 340.98 221.455 340.94C221.282 340.9 221.129 340.847 220.995 340.78C220.875 340.713 220.762 340.627 220.655 340.52C220.549 340.413 220.442 340.3 220.335 340.18L210.435 328.8C210.289 328.64 210.149 328.507 210.015 328.4C209.895 328.28 209.749 328.18 209.575 328.1C209.415 328.02 209.222 327.967 208.995 327.94C208.782 327.9 208.515 327.88 208.195 327.88H206.435V341H202.575V312.34H206.435V324.9ZM234.002 341H230.122V312.34H234.002V341ZM243.668 312.34C244.014 312.34 244.268 312.387 244.428 312.48C244.601 312.56 244.794 312.733 245.008 313L261.608 334.6C261.568 334.253 261.541 333.92 261.528 333.6C261.514 333.267 261.508 332.947 261.508 332.64V312.34H264.908V341H262.948C262.641 341 262.381 340.947 262.168 340.84C261.968 340.733 261.768 340.553 261.568 340.3L244.988 318.72C245.014 319.053 245.034 319.38 245.048 319.7C245.061 320.02 245.068 320.313 245.068 320.58V341H241.668V312.34H243.668ZM284.682 338.18C285.455 338.18 286.162 338.147 286.802 338.08C287.455 338 288.069 337.887 288.642 337.74C289.215 337.593 289.755 337.42 290.262 337.22C290.769 337.007 291.275 336.767 291.782 336.5V330.18H287.342C287.089 330.18 286.882 330.107 286.722 329.96C286.575 329.813 286.502 329.633 286.502 329.42V327.22H295.302V338.22C294.582 338.74 293.829 339.193 293.042 339.58C292.269 339.967 291.435 340.293 290.542 340.56C289.662 340.813 288.715 341 287.702 341.12C286.689 341.253 285.589 341.32 284.402 341.32C282.322 341.32 280.415 340.967 278.682 340.26C276.949 339.54 275.455 338.54 274.202 337.26C272.949 335.967 271.969 334.42 271.262 332.62C270.569 330.82 270.222 328.84 270.222 326.68C270.222 324.493 270.562 322.5 271.242 320.7C271.935 318.9 272.915 317.36 274.182 316.08C275.462 314.787 277.002 313.787 278.802 313.08C280.615 312.373 282.642 312.02 284.882 312.02C286.015 312.02 287.069 312.107 288.042 312.28C289.015 312.44 289.915 312.68 290.742 313C291.582 313.307 292.355 313.687 293.062 314.14C293.769 314.58 294.429 315.08 295.042 315.64L293.942 317.4C293.715 317.76 293.422 317.94 293.062 317.94C292.849 317.94 292.615 317.867 292.362 317.72C292.029 317.533 291.655 317.307 291.242 317.04C290.829 316.773 290.322 316.52 289.722 316.28C289.135 316.027 288.435 315.813 287.622 315.64C286.822 315.467 285.869 315.38 284.762 315.38C283.149 315.38 281.689 315.647 280.382 316.18C279.075 316.7 277.962 317.453 277.042 318.44C276.122 319.413 275.415 320.6 274.922 322C274.429 323.387 274.182 324.947 274.182 326.68C274.182 328.493 274.435 330.113 274.942 331.54C275.462 332.953 276.189 334.153 277.122 335.14C278.055 336.127 279.162 336.88 280.442 337.4C281.722 337.92 283.135 338.18 284.682 338.18ZM335.631 326.68C335.631 328.827 335.291 330.8 334.611 332.6C333.931 334.387 332.971 335.927 331.731 337.22C330.491 338.513 328.998 339.52 327.251 340.24C325.518 340.947 323.598 341.3 321.491 341.3C319.385 341.3 317.465 340.947 315.731 340.24C313.998 339.52 312.511 338.513 311.271 337.22C310.031 335.927 309.071 334.387 308.391 332.6C307.711 330.8 307.371 328.827 307.371 326.68C307.371 324.533 307.711 322.567 308.391 320.78C309.071 318.98 310.031 317.433 311.271 316.14C312.511 314.833 313.998 313.82 315.731 313.1C317.465 312.38 319.385 312.02 321.491 312.02C323.598 312.02 325.518 312.38 327.251 313.1C328.998 313.82 330.491 314.833 331.731 316.14C332.971 317.433 333.931 318.98 334.611 320.78C335.291 322.567 335.631 324.533 335.631 326.68ZM331.651 326.68C331.651 324.92 331.411 323.34 330.931 321.94C330.451 320.54 329.771 319.36 328.891 318.4C328.011 317.427 326.945 316.68 325.691 316.16C324.438 315.64 323.038 315.38 321.491 315.38C319.958 315.38 318.565 315.64 317.311 316.16C316.058 316.68 314.985 317.427 314.091 318.4C313.211 319.36 312.531 320.54 312.051 321.94C311.571 323.34 311.331 324.92 311.331 326.68C311.331 328.44 311.571 330.02 312.051 331.42C312.531 332.807 313.211 333.987 314.091 334.96C314.985 335.92 316.058 336.66 317.311 337.18C318.565 337.687 319.958 337.94 321.491 337.94C323.038 337.94 324.438 337.687 325.691 337.18C326.945 336.66 328.011 335.92 328.891 334.96C329.771 333.987 330.451 332.807 330.931 331.42C331.411 330.02 331.651 328.44 331.651 326.68ZM345.185 330.28V341H341.325V312.34H349.785C351.599 312.34 353.172 312.553 354.505 312.98C355.852 313.393 356.965 313.987 357.845 314.76C358.725 315.533 359.379 316.467 359.805 317.56C360.245 318.653 360.465 319.873 360.465 321.22C360.465 322.553 360.232 323.773 359.765 324.88C359.299 325.987 358.612 326.94 357.705 327.74C356.812 328.54 355.699 329.167 354.365 329.62C353.032 330.06 351.505 330.28 349.785 330.28H345.185ZM345.185 327.2H349.785C350.892 327.2 351.865 327.053 352.705 326.76C353.559 326.467 354.272 326.06 354.845 325.54C355.419 325.007 355.852 324.373 356.145 323.64C356.439 322.907 356.585 322.1 356.585 321.22C356.585 319.393 356.019 317.967 354.885 316.94C353.765 315.913 352.065 315.4 349.785 315.4H345.185V327.2ZM369.638 330.28V341H365.778V312.34H374.238C376.052 312.34 377.625 312.553 378.958 312.98C380.305 313.393 381.418 313.987 382.298 314.76C383.178 315.533 383.832 316.467 384.258 317.56C384.698 318.653 384.918 319.873 384.918 321.22C384.918 322.553 384.685 323.773 384.218 324.88C383.752 325.987 383.065 326.94 382.158 327.74C381.265 328.54 380.152 329.167 378.818 329.62C377.485 330.06 375.958 330.28 374.238 330.28H369.638ZM369.638 327.2H374.238C375.345 327.2 376.318 327.053 377.158 326.76C378.012 326.467 378.725 326.06 379.298 325.54C379.872 325.007 380.305 324.373 380.598 323.64C380.892 322.907 381.038 322.1 381.038 321.22C381.038 319.393 380.472 317.967 379.338 316.94C378.218 315.913 376.518 315.4 374.238 315.4H369.638V327.2ZM416.452 326.68C416.452 328.827 416.112 330.8 415.432 332.6C414.752 334.387 413.792 335.927 412.552 337.22C411.312 338.513 409.818 339.52 408.072 340.24C406.338 340.947 404.418 341.3 402.312 341.3C400.205 341.3 398.285 340.947 396.552 340.24C394.818 339.52 393.332 338.513 392.092 337.22C390.852 335.927 389.892 334.387 389.212 332.6C388.532 330.8 388.192 328.827 388.192 326.68C388.192 324.533 388.532 322.567 389.212 320.78C389.892 318.98 390.852 317.433 392.092 316.14C393.332 314.833 394.818 313.82 396.552 313.1C398.285 312.38 400.205 312.02 402.312 312.02C404.418 312.02 406.338 312.38 408.072 313.1C409.818 313.82 411.312 314.833 412.552 316.14C413.792 317.433 414.752 318.98 415.432 320.78C416.112 322.567 416.452 324.533 416.452 326.68ZM412.472 326.68C412.472 324.92 412.232 323.34 411.752 321.94C411.272 320.54 410.592 319.36 409.712 318.4C408.832 317.427 407.765 316.68 406.512 316.16C405.258 315.64 403.858 315.38 402.312 315.38C400.778 315.38 399.385 315.64 398.132 316.16C396.878 316.68 395.805 317.427 394.912 318.4C394.032 319.36 393.352 320.54 392.872 321.94C392.392 323.34 392.152 324.92 392.152 326.68C392.152 328.44 392.392 330.02 392.872 331.42C393.352 332.807 394.032 333.987 394.912 334.96C395.805 335.92 396.878 336.66 398.132 337.18C399.385 337.687 400.778 337.94 402.312 337.94C403.858 337.94 405.258 337.687 406.512 337.18C407.765 336.66 408.832 335.92 409.712 334.96C410.592 333.987 411.272 332.807 411.752 331.42C412.232 330.02 412.472 328.44 412.472 326.68ZM426.006 329.04V341H422.146V312.34H430.246C432.059 312.34 433.626 312.527 434.946 312.9C436.266 313.26 437.352 313.787 438.206 314.48C439.072 315.173 439.712 316.013 440.126 317C440.539 317.973 440.746 319.067 440.746 320.28C440.746 321.293 440.586 322.24 440.266 323.12C439.946 324 439.479 324.793 438.866 325.5C438.266 326.193 437.526 326.787 436.646 327.28C435.779 327.773 434.792 328.147 433.686 328.4C434.166 328.68 434.592 329.087 434.966 329.62L443.326 341H439.886C439.179 341 438.659 340.727 438.326 340.18L430.886 329.94C430.659 329.62 430.412 329.393 430.146 329.26C429.879 329.113 429.479 329.04 428.946 329.04H426.006ZM426.006 326.22H430.066C431.199 326.22 432.192 326.087 433.046 325.82C433.912 325.54 434.632 325.153 435.206 324.66C435.792 324.153 436.232 323.553 436.526 322.86C436.819 322.167 436.966 321.4 436.966 320.56C436.966 318.853 436.399 317.567 435.266 316.7C434.146 315.833 432.472 315.4 430.246 315.4H426.006V326.22ZM465.953 312.34V315.6H456.693V341H452.813V315.6H443.513V312.34H465.953ZM481.167 337.92C482.354 337.92 483.414 337.72 484.347 337.32C485.28 336.92 486.067 336.36 486.707 335.64C487.36 334.92 487.854 334.06 488.187 333.06C488.534 332.06 488.707 330.96 488.707 329.76V312.34H492.567V329.76C492.567 331.413 492.3 332.947 491.767 334.36C491.247 335.773 490.494 337 489.507 338.04C488.534 339.067 487.34 339.873 485.927 340.46C484.514 341.047 482.927 341.34 481.167 341.34C479.407 341.34 477.82 341.047 476.407 340.46C474.994 339.873 473.794 339.067 472.807 338.04C471.82 337 471.06 335.773 470.527 334.36C470.007 332.947 469.747 331.413 469.747 329.76V312.34H473.607V329.74C473.607 330.94 473.774 332.04 474.107 333.04C474.454 334.04 474.947 334.9 475.587 335.62C476.24 336.34 477.034 336.907 477.967 337.32C478.914 337.72 479.98 337.92 481.167 337.92ZM501.246 312.34C501.592 312.34 501.846 312.387 502.006 312.48C502.179 312.56 502.372 312.733 502.586 313L519.186 334.6C519.146 334.253 519.119 333.92 519.106 333.6C519.092 333.267 519.086 332.947 519.086 332.64V312.34H522.486V341H520.526C520.219 341 519.959 340.947 519.746 340.84C519.546 340.733 519.346 340.553 519.146 340.3L502.566 318.72C502.592 319.053 502.612 319.38 502.626 319.7C502.639 320.02 502.646 320.313 502.646 320.58V341H499.246V312.34H501.246ZM534.08 341H530.2V312.34H534.08V341ZM561.266 312.34V315.6H552.006V341H548.126V315.6H538.826V312.34H561.266ZM569.939 341H566.059V312.34H569.939V341ZM595.265 312.34V315.5H581.505V325.02H592.645V328.06H581.505V337.84H595.265V341H577.605V312.34H595.265ZM615.527 316.82C615.407 317.02 615.281 317.173 615.147 317.28C615.014 317.373 614.841 317.42 614.627 317.42C614.401 317.42 614.134 317.307 613.827 317.08C613.534 316.853 613.154 316.607 612.687 316.34C612.234 316.06 611.681 315.807 611.027 315.58C610.387 315.353 609.607 315.24 608.687 315.24C607.821 315.24 607.054 315.36 606.387 315.6C605.721 315.827 605.161 316.14 604.707 316.54C604.267 316.94 603.934 317.413 603.707 317.96C603.481 318.493 603.367 319.073 603.367 319.7C603.367 320.5 603.561 321.167 603.947 321.7C604.347 322.22 604.867 322.667 605.507 323.04C606.161 323.413 606.894 323.74 607.707 324.02C608.534 324.287 609.374 324.567 610.227 324.86C611.094 325.153 611.934 325.487 612.747 325.86C613.574 326.22 614.307 326.68 614.947 327.24C615.601 327.8 616.121 328.487 616.507 329.3C616.907 330.113 617.107 331.113 617.107 332.3C617.107 333.553 616.894 334.733 616.467 335.84C616.041 336.933 615.414 337.887 614.587 338.7C613.774 339.513 612.767 340.153 611.567 340.62C610.381 341.087 609.027 341.32 607.507 341.32C605.654 341.32 603.961 340.987 602.427 340.32C600.907 339.64 599.607 338.727 598.527 337.58L599.647 335.74C599.754 335.593 599.881 335.473 600.027 335.38C600.187 335.273 600.361 335.22 600.547 335.22C600.827 335.22 601.147 335.373 601.507 335.68C601.867 335.973 602.314 336.3 602.847 336.66C603.394 337.02 604.047 337.353 604.807 337.66C605.581 337.953 606.521 338.1 607.627 338.1C608.547 338.1 609.367 337.973 610.087 337.72C610.807 337.467 611.414 337.113 611.907 336.66C612.414 336.193 612.801 335.64 613.067 335C613.334 334.36 613.467 333.647 613.467 332.86C613.467 331.993 613.267 331.287 612.867 330.74C612.481 330.18 611.967 329.713 611.327 329.34C610.687 328.967 609.954 328.653 609.127 328.4C608.314 328.133 607.474 327.867 606.607 327.6C605.754 327.32 604.914 327 604.087 326.64C603.274 326.28 602.547 325.813 601.907 325.24C601.267 324.667 600.747 323.953 600.347 323.1C599.961 322.233 599.767 321.167 599.767 319.9C599.767 318.887 599.961 317.907 600.347 316.96C600.747 316.013 601.321 315.173 602.067 314.44C602.814 313.707 603.734 313.12 604.827 312.68C605.934 312.24 607.201 312.02 608.627 312.02C610.227 312.02 611.687 312.273 613.007 312.78C614.327 313.287 615.481 314.02 616.467 314.98L615.527 316.82ZM620.458 338.54C620.458 338.233 620.511 337.947 620.618 337.68C620.738 337.4 620.898 337.16 621.098 336.96C621.311 336.747 621.565 336.58 621.858 336.46C622.151 336.34 622.471 336.28 622.818 336.28C623.218 336.28 623.571 336.353 623.878 336.5C624.198 336.647 624.458 336.853 624.658 337.12C624.871 337.373 625.031 337.673 625.138 338.02C625.245 338.353 625.298 338.72 625.298 339.12C625.298 339.72 625.211 340.347 625.038 341C624.865 341.64 624.618 342.273 624.298 342.9C623.978 343.54 623.578 344.16 623.098 344.76C622.631 345.36 622.098 345.913 621.498 346.42L620.898 345.84C620.725 345.68 620.638 345.493 620.638 345.28C620.638 345.107 620.731 344.927 620.918 344.74C621.051 344.593 621.218 344.393 621.418 344.14C621.631 343.9 621.845 343.62 622.058 343.3C622.271 342.98 622.465 342.627 622.638 342.24C622.825 341.853 622.958 341.44 623.038 341H622.778C622.431 341 622.118 340.94 621.838 340.82C621.558 340.7 621.311 340.533 621.098 340.32C620.898 340.093 620.738 339.833 620.618 339.54C620.511 339.233 620.458 338.9 620.458 338.54ZM638.269 341V312.34H647.409C649.169 312.34 650.682 312.513 651.949 312.86C653.229 313.207 654.276 313.7 655.089 314.34C655.916 314.98 656.522 315.767 656.909 316.7C657.309 317.62 657.509 318.66 657.509 319.82C657.509 320.527 657.396 321.207 657.169 321.86C656.956 322.513 656.622 323.12 656.169 323.68C655.729 324.24 655.169 324.74 654.489 325.18C653.822 325.62 653.036 325.98 652.129 326.26C654.222 326.673 655.802 327.427 656.869 328.52C657.936 329.613 658.469 331.053 658.469 332.84C658.469 334.053 658.242 335.16 657.789 336.16C657.349 337.16 656.696 338.02 655.829 338.74C654.976 339.46 653.922 340.02 652.669 340.42C651.429 340.807 650.009 341 648.409 341H638.269ZM642.149 327.94V337.92H648.349C649.456 337.92 650.402 337.793 651.189 337.54C651.989 337.287 652.642 336.933 653.149 336.48C653.669 336.013 654.049 335.467 654.289 334.84C654.529 334.2 654.649 333.5 654.649 332.74C654.649 331.26 654.122 330.093 653.069 329.24C652.029 328.373 650.449 327.94 648.329 327.94H642.149ZM642.149 325.18H647.269C648.362 325.18 649.309 325.06 650.109 324.82C650.909 324.58 651.569 324.247 652.089 323.82C652.622 323.393 653.016 322.88 653.269 322.28C653.522 321.667 653.649 321 653.649 320.28C653.649 318.6 653.142 317.367 652.129 316.58C651.116 315.793 649.542 315.4 647.409 315.4H642.149V325.18ZM675.308 337.92C676.494 337.92 677.554 337.72 678.488 337.32C679.421 336.92 680.208 336.36 680.848 335.64C681.501 334.92 681.994 334.06 682.328 333.06C682.674 332.06 682.848 330.96 682.848 329.76V312.34H686.708V329.76C686.708 331.413 686.441 332.947 685.908 334.36C685.388 335.773 684.634 337 683.648 338.04C682.674 339.067 681.481 339.873 680.068 340.46C678.654 341.047 677.068 341.34 675.308 341.34C673.548 341.34 671.961 341.047 670.548 340.46C669.134 339.873 667.934 339.067 666.948 338.04C665.961 337 665.201 335.773 664.668 334.36C664.148 332.947 663.888 331.413 663.888 329.76V312.34H667.748V329.74C667.748 330.94 667.914 332.04 668.248 333.04C668.594 334.04 669.088 334.9 669.728 335.62C670.381 336.34 671.174 336.907 672.108 337.32C673.054 337.72 674.121 337.92 675.308 337.92ZM697.986 341H694.106V312.34H697.986V341ZM709.532 337.74H721.932V341H705.652V312.34H709.532V337.74ZM751.039 326.68C751.039 328.827 750.699 330.78 750.019 332.54C749.339 334.3 748.379 335.807 747.139 337.06C745.899 338.313 744.412 339.287 742.679 339.98C740.945 340.66 739.025 341 736.919 341H726.199V312.34H736.919C739.025 312.34 740.945 312.687 742.679 313.38C744.412 314.06 745.899 315.033 747.139 316.3C748.379 317.553 749.339 319.06 750.019 320.82C750.699 322.58 751.039 324.533 751.039 326.68ZM747.059 326.68C747.059 324.92 746.819 323.347 746.339 321.96C745.859 320.573 745.179 319.4 744.299 318.44C743.419 317.48 742.352 316.747 741.099 316.24C739.845 315.733 738.452 315.48 736.919 315.48H730.099V337.86H736.919C738.452 337.86 739.845 337.607 741.099 337.1C742.352 336.593 743.419 335.867 744.299 334.92C745.179 333.96 745.859 332.787 746.339 331.4C746.819 330.013 747.059 328.44 747.059 326.68ZM760.916 341H757.036V312.34H760.916V341ZM770.582 312.34C770.928 312.34 771.182 312.387 771.342 312.48C771.515 312.56 771.708 312.733 771.922 313L788.522 334.6C788.482 334.253 788.455 333.92 788.442 333.6C788.428 333.267 788.422 332.947 788.422 332.64V312.34H791.822V341H789.862C789.555 341 789.295 340.947 789.082 340.84C788.882 340.733 788.682 340.553 788.482 340.3L771.902 318.72C771.928 319.053 771.948 319.38 771.962 319.7C771.975 320.02 771.982 320.313 771.982 320.58V341H768.582V312.34H770.582ZM811.596 338.18C812.369 338.18 813.076 338.147 813.716 338.08C814.369 338 814.983 337.887 815.556 337.74C816.129 337.593 816.669 337.42 817.176 337.22C817.683 337.007 818.189 336.767 818.696 336.5V330.18H814.256C814.003 330.18 813.796 330.107 813.636 329.96C813.489 329.813 813.416 329.633 813.416 329.42V327.22H822.216V338.22C821.496 338.74 820.743 339.193 819.956 339.58C819.183 339.967 818.349 340.293 817.456 340.56C816.576 340.813 815.629 341 814.616 341.12C813.603 341.253 812.503 341.32 811.316 341.32C809.236 341.32 807.329 340.967 805.596 340.26C803.863 339.54 802.369 338.54 801.116 337.26C799.863 335.967 798.883 334.42 798.176 332.62C797.483 330.82 797.136 328.84 797.136 326.68C797.136 324.493 797.476 322.5 798.156 320.7C798.849 318.9 799.829 317.36 801.096 316.08C802.376 314.787 803.916 313.787 805.716 313.08C807.529 312.373 809.556 312.02 811.796 312.02C812.929 312.02 813.983 312.107 814.956 312.28C815.929 312.44 816.829 312.68 817.656 313C818.496 313.307 819.269 313.687 819.976 314.14C820.683 314.58 821.343 315.08 821.956 315.64L820.856 317.4C820.629 317.76 820.336 317.94 819.976 317.94C819.763 317.94 819.529 317.867 819.276 317.72C818.943 317.533 818.569 317.307 818.156 317.04C817.743 316.773 817.236 316.52 816.636 316.28C816.049 316.027 815.349 315.813 814.536 315.64C813.736 315.467 812.783 315.38 811.676 315.38C810.063 315.38 808.603 315.647 807.296 316.18C805.989 316.7 804.876 317.453 803.956 318.44C803.036 319.413 802.329 320.6 801.836 322C801.343 323.387 801.096 324.947 801.096 326.68C801.096 328.493 801.349 330.113 801.856 331.54C802.376 332.953 803.103 334.153 804.036 335.14C804.969 336.127 806.076 336.88 807.356 337.4C808.636 337.92 810.049 338.18 811.596 338.18ZM853.585 312.34V315.5H839.825V325.52H851.585V328.68H839.825V341H835.925V312.34H853.585ZM869.722 337.92C870.908 337.92 871.968 337.72 872.902 337.32C873.835 336.92 874.622 336.36 875.262 335.64C875.915 334.92 876.408 334.06 876.742 333.06C877.088 332.06 877.262 330.96 877.262 329.76V312.34H881.122V329.76C881.122 331.413 880.855 332.947 880.322 334.36C879.802 335.773 879.048 337 878.062 338.04C877.088 339.067 875.895 339.873 874.482 340.46C873.068 341.047 871.482 341.34 869.722 341.34C867.962 341.34 866.375 341.047 864.962 340.46C863.548 339.873 862.348 339.067 861.362 338.04C860.375 337 859.615 335.773 859.082 334.36C858.562 332.947 858.302 331.413 858.302 329.76V312.34H862.162V329.74C862.162 330.94 862.328 332.04 862.662 333.04C863.008 334.04 863.502 334.9 864.142 335.62C864.795 336.34 865.588 336.907 866.522 337.32C867.468 337.72 868.535 337.92 869.722 337.92ZM907.32 312.34V315.6H898.06V341H894.18V315.6H884.88V312.34H907.32ZM922.534 337.92C923.721 337.92 924.781 337.72 925.714 337.32C926.647 336.92 927.434 336.36 928.074 335.64C928.727 334.92 929.221 334.06 929.554 333.06C929.901 332.06 930.074 330.96 930.074 329.76V312.34H933.934V329.76C933.934 331.413 933.667 332.947 933.134 334.36C932.614 335.773 931.861 337 930.874 338.04C929.901 339.067 928.707 339.873 927.294 340.46C925.881 341.047 924.294 341.34 922.534 341.34C920.774 341.34 919.187 341.047 917.774 340.46C916.361 339.873 915.161 339.067 914.174 338.04C913.187 337 912.427 335.773 911.894 334.36C911.374 332.947 911.114 331.413 911.114 329.76V312.34H914.974V329.74C914.974 330.94 915.141 332.04 915.474 333.04C915.821 334.04 916.314 334.9 916.954 335.62C917.607 336.34 918.401 336.907 919.334 337.32C920.281 337.72 921.347 337.92 922.534 337.92ZM944.873 329.04V341H941.013V312.34H949.113C950.926 312.34 952.493 312.527 953.813 312.9C955.133 313.26 956.219 313.787 957.073 314.48C957.939 315.173 958.579 316.013 958.993 317C959.406 317.973 959.613 319.067 959.613 320.28C959.613 321.293 959.453 322.24 959.133 323.12C958.813 324 958.346 324.793 957.733 325.5C957.133 326.193 956.393 326.787 955.513 327.28C954.646 327.773 953.659 328.147 952.553 328.4C953.033 328.68 953.459 329.087 953.833 329.62L962.193 341H958.753C958.046 341 957.526 340.727 957.193 340.18L949.753 329.94C949.526 329.62 949.279 329.393 949.013 329.26C948.746 329.113 948.346 329.04 947.813 329.04H944.873ZM944.873 326.22H948.933C950.066 326.22 951.059 326.087 951.913 325.82C952.779 325.54 953.499 325.153 954.073 324.66C954.659 324.153 955.099 323.553 955.393 322.86C955.686 322.167 955.833 321.4 955.833 320.56C955.833 318.853 955.266 317.567 954.133 316.7C953.013 315.833 951.339 315.4 949.113 315.4H944.873V326.22ZM984.015 312.34V315.5H970.255V325.02H981.395V328.06H970.255V337.84H984.015V341H966.355V312.34H984.015ZM1004.28 316.82C1004.16 317.02 1004.03 317.173 1003.9 317.28C1003.76 317.373 1003.59 317.42 1003.38 317.42C1003.15 317.42 1002.88 317.307 1002.58 317.08C1002.28 316.853 1001.9 316.607 1001.44 316.34C1000.98 316.06 1000.43 315.807 999.777 315.58C999.137 315.353 998.357 315.24 997.437 315.24C996.571 315.24 995.804 315.36 995.137 315.6C994.471 315.827 993.911 316.14 993.457 316.54C993.017 316.94 992.684 317.413 992.457 317.96C992.231 318.493 992.117 319.073 992.117 319.7C992.117 320.5 992.311 321.167 992.697 321.7C993.097 322.22 993.617 322.667 994.257 323.04C994.911 323.413 995.644 323.74 996.457 324.02C997.284 324.287 998.124 324.567 998.977 324.86C999.844 325.153 1000.68 325.487 1001.5 325.86C1002.32 326.22 1003.06 326.68 1003.7 327.24C1004.35 327.8 1004.87 328.487 1005.26 329.3C1005.66 330.113 1005.86 331.113 1005.86 332.3C1005.86 333.553 1005.64 334.733 1005.22 335.84C1004.79 336.933 1004.16 337.887 1003.34 338.7C1002.52 339.513 1001.52 340.153 1000.32 340.62C999.131 341.087 997.777 341.32 996.257 341.32C994.404 341.32 992.711 340.987 991.177 340.32C989.657 339.64 988.357 338.727 987.277 337.58L988.397 335.74C988.504 335.593 988.631 335.473 988.777 335.38C988.937 335.273 989.111 335.22 989.297 335.22C989.577 335.22 989.897 335.373 990.257 335.68C990.617 335.973 991.064 336.3 991.597 336.66C992.144 337.02 992.797 337.353 993.557 337.66C994.331 337.953 995.271 338.1 996.377 338.1C997.297 338.1 998.117 337.973 998.837 337.72C999.557 337.467 1000.16 337.113 1000.66 336.66C1001.16 336.193 1001.55 335.64 1001.82 335C1002.08 334.36 1002.22 333.647 1002.22 332.86C1002.22 331.993 1002.02 331.287 1001.62 330.74C1001.23 330.18 1000.72 329.713 1000.08 329.34C999.437 328.967 998.704 328.653 997.877 328.4C997.064 328.133 996.224 327.867 995.357 327.6C994.504 327.32 993.664 327 992.837 326.64C992.024 326.28 991.297 325.813 990.657 325.24C990.017 324.667 989.497 323.953 989.097 323.1C988.711 322.233 988.517 321.167 988.517 319.9C988.517 318.887 988.711 317.907 989.097 316.96C989.497 316.013 990.071 315.173 990.817 314.44C991.564 313.707 992.484 313.12 993.577 312.68C994.684 312.24 995.951 312.02 997.377 312.02C998.977 312.02 1000.44 312.273 1001.76 312.78C1003.08 313.287 1004.23 314.02 1005.22 314.98L1004.28 316.82ZM1012.75 310.84C1013.13 311.48 1013.41 312.12 1013.59 312.76C1013.76 313.4 1013.85 314.04 1013.85 314.68C1013.85 315.893 1013.55 317.053 1012.95 318.16C1012.36 319.253 1011.54 320.26 1010.49 321.18L1009.39 320.5C1009.28 320.433 1009.21 320.36 1009.17 320.28C1009.14 320.2 1009.13 320.12 1009.13 320.04C1009.13 319.853 1009.19 319.693 1009.33 319.56C1009.54 319.307 1009.75 319.033 1009.95 318.74C1010.15 318.433 1010.33 318.12 1010.49 317.8C1010.65 317.467 1010.77 317.12 1010.87 316.76C1010.96 316.4 1011.01 316.02 1011.01 315.62C1011.01 315.193 1010.94 314.753 1010.81 314.3C1010.69 313.847 1010.47 313.367 1010.17 312.86C1010.07 312.713 1010.03 312.567 1010.03 312.42C1010.03 312.1 1010.21 311.867 1010.57 311.72L1012.75 310.84ZM1018.83 310.84C1019.21 311.48 1019.49 312.12 1019.67 312.76C1019.84 313.4 1019.93 314.04 1019.93 314.68C1019.93 315.893 1019.63 317.053 1019.03 318.16C1018.44 319.253 1017.62 320.26 1016.57 321.18L1015.47 320.5C1015.36 320.433 1015.29 320.36 1015.25 320.28C1015.22 320.2 1015.21 320.12 1015.21 320.04C1015.21 319.853 1015.27 319.693 1015.41 319.56C1015.62 319.307 1015.83 319.033 1016.03 318.74C1016.23 318.433 1016.41 318.12 1016.57 317.8C1016.73 317.467 1016.85 317.12 1016.95 316.76C1017.04 316.4 1017.09 316.02 1017.09 315.62C1017.09 315.193 1017.02 314.753 1016.89 314.3C1016.77 313.847 1016.55 313.367 1016.25 312.86C1016.15 312.713 1016.11 312.567 1016.11 312.42C1016.11 312.1 1016.29 311.867 1016.65 311.72L1018.83 310.84Z" fill="white"/>
<path d="M29.8809 172.734V187.188H51.5605C56.3783 187.188 58.7871 184.779 58.7871 179.961C58.7871 175.143 56.3783 172.734 51.5605 172.734H29.8809ZM29.8809 208.867V223.32H51.5605C56.3783 223.32 58.7871 220.911 58.7871 216.094C58.7871 211.276 56.3783 208.867 51.5605 208.867H29.8809ZM0.974609 245V143.828H51.5605C75.6491 143.828 87.6934 155.872 87.6934 179.961C87.6934 187.814 85.2845 193.836 80.4668 198.027C85.2845 202.219 87.6934 208.241 87.6934 216.094C87.6934 235.365 75.6491 245 51.5605 245H0.974609Z" fill="#FFC107"/>
<path d="M123.826 143.828V245H94.9199V143.828H123.826ZM188.865 245H159.959V172.734H131.053V143.828H217.771V172.734H188.865V245Z" fill="#1C99ED"/>
<path d="M261.131 208.867C237.042 208.867 224.998 197.931 224.998 176.059C224.998 154.572 237.042 143.828 261.131 143.828H318.943L290.037 172.734H261.131C256.313 172.734 253.904 173.842 253.904 176.059C253.904 178.66 256.313 179.961 261.131 179.961H282.811C306.899 179.961 318.943 190.704 318.943 212.191C318.943 234.064 306.899 245 282.811 245H221.385L250.291 216.094H282.811C287.628 216.094 290.037 214.793 290.037 212.191C290.037 209.975 287.628 208.867 282.811 208.867H261.131Z" fill="#E23434"/>
</svg>
