<svg width="261" height="25" viewBox="0 0 261 25" fill="none" xmlns="http://www.w3.org/2000/svg">
<path d="M7.99805 7.42188V10.9375H13.2715C14.4434 10.9375 15.0293 10.3516 15.0293 9.17969C15.0293 8.00781 14.4434 7.42188 13.2715 7.42188H7.99805ZM7.99805 16.2109V19.7266H13.2715C14.4434 19.7266 15.0293 19.1406 15.0293 17.9688C15.0293 16.7969 14.4434 16.2109 13.2715 16.2109H7.99805ZM0.966797 25V0.390625H13.2715C19.1309 0.390625 22.0605 3.32031 22.0605 9.17969C22.0605 11.0898 21.4746 12.5547 20.3027 13.5742C21.4746 14.5938 22.0605 16.0586 22.0605 17.9688C22.0605 22.6562 19.1309 25 13.2715 25H0.966797ZM238.939 25C237.967 25 237.135 24.6602 236.443 23.9805C235.764 23.2891 235.424 22.457 235.424 21.4844C235.424 20.5117 235.764 19.6855 236.443 19.0059C237.135 18.3145 237.967 17.9688 238.939 17.9688C239.912 17.9688 240.738 18.3145 241.418 19.0059C242.109 19.6855 242.455 20.5117 242.455 21.4844C242.455 22.457 242.109 23.2891 241.418 23.9805C240.738 24.6602 239.912 25 238.939 25Z" fill="#FFC107"/>
<path d="M30.8496 0.390625V25H23.8184V0.390625H30.8496ZM46.6699 25H39.6387V7.42188H32.6074V0.390625H53.7012V7.42188H46.6699V25ZM247.729 25C246.756 25 245.924 24.6602 245.232 23.9805C244.553 23.2891 244.213 22.457 244.213 21.4844C244.213 20.5117 244.553 19.6855 245.232 19.0059C245.924 18.3145 246.756 17.9688 247.729 17.9688C248.701 17.9688 249.527 18.3145 250.207 19.0059C250.898 19.6855 251.244 20.5117 251.244 21.4844C251.244 22.457 250.898 23.2891 250.207 23.9805C249.527 24.6602 248.701 25 247.729 25Z" fill="#1C99ED"/>
<path d="M64.248 16.2109C58.3887 16.2109 55.459 13.5508 55.459 8.23047C55.459 3.00391 58.3887 0.390625 64.248 0.390625H78.3105L71.2793 7.42188H64.248C63.0762 7.42188 62.4902 7.69141 62.4902 8.23047C62.4902 8.86328 63.0762 9.17969 64.248 9.17969H69.5215C75.3809 9.17969 78.3105 11.793 78.3105 17.0195C78.3105 22.3398 75.3809 25 69.5215 25H54.5801L61.6113 17.9688H69.5215C70.6934 17.9688 71.2793 17.6523 71.2793 17.0195C71.2793 16.4805 70.6934 16.2109 69.5215 16.2109H64.248ZM256.518 25C255.545 25 254.713 24.6602 254.021 23.9805C253.342 23.2891 253.002 22.457 253.002 21.4844C253.002 20.5117 253.342 19.6855 254.021 19.0059C254.713 18.3145 255.545 17.9688 256.518 17.9688C257.49 17.9688 258.316 18.3145 258.996 19.0059C259.688 19.6855 260.033 20.5117 260.033 21.4844C260.033 22.457 259.688 23.2891 258.996 23.9805C258.316 24.6602 257.49 25 256.518 25Z" fill="#E23434"/>
<path d="M91.4941 0.390625H99.4043V7.42188H91.4941C90.041 7.42188 88.7988 7.9375 87.7676 8.96875C86.7363 10 86.2207 11.2422 86.2207 12.6953C86.2207 14.1484 86.7363 15.3906 87.7676 16.4219C88.7988 17.4531 90.041 17.9688 91.4941 17.9688H99.4043V25H91.4941C88.0957 25 85.1953 23.7988 82.793 21.3965C80.3906 18.9941 79.1895 16.0938 79.1895 12.6953C79.1895 9.29688 80.3906 6.39648 82.793 3.99414C85.1953 1.5918 88.0957 0.390625 91.4941 0.390625ZM113.467 25C110.068 25 107.168 23.7988 104.766 21.3965C102.363 18.9941 101.162 16.0938 101.162 12.6953C101.162 9.29688 102.363 6.39648 104.766 3.99414C107.168 1.5918 110.068 0.390625 113.467 0.390625C116.865 0.390625 119.766 1.5918 122.168 3.99414C124.57 6.39648 125.771 9.29688 125.771 12.6953C125.771 16.0938 124.57 18.9941 122.168 21.3965C119.766 23.7988 116.865 25 113.467 25ZM113.467 17.9688C114.92 17.9688 116.162 17.4531 117.193 16.4219C118.225 15.3906 118.74 14.1484 118.74 12.6953C118.74 11.2422 118.225 10 117.193 8.96875C116.162 7.9375 114.92 7.42188 113.467 7.42188C112.014 7.42188 110.771 7.9375 109.74 8.96875C108.709 10 108.193 11.2422 108.193 12.6953C108.193 14.1484 108.709 15.3906 109.74 16.4219C110.771 17.4531 112.014 17.9688 113.467 17.9688ZM134.561 12.6953V25H127.529V0.390625H134.561L143.35 12.6953V0.390625H150.381V25H143.35L134.561 12.6953ZM159.17 12.6953V25H152.139V0.390625H159.17L167.959 12.6953V0.390625H174.99V25H167.959L159.17 12.6953ZM196.084 0.390625V7.42188H183.779V9.17969H196.084V16.2109H183.779V17.9688H196.084V25H176.748V0.390625H196.084ZM210.146 0.390625H218.057V7.42188H210.146C208.693 7.42188 207.451 7.9375 206.42 8.96875C205.389 10 204.873 11.2422 204.873 12.6953C204.873 14.1484 205.389 15.3906 206.42 16.4219C207.451 17.4531 208.693 17.9688 210.146 17.9688H218.057V25H210.146C206.748 25 203.848 23.7988 201.445 21.3965C199.043 18.9941 197.842 16.0938 197.842 12.6953C197.842 9.29688 199.043 6.39648 201.445 3.99414C203.848 1.5918 206.748 0.390625 210.146 0.390625ZM233.877 25H226.846V7.42188H219.814V0.390625H240.908V7.42188H233.877V25Z" fill="white"/>
</svg>
